<?xml version="1.0" encoding="utf-8"?>
<!-- Generator: Adobe Illustrator 19.1.0, SVG Export Plug-In . SVG Version: 6.00 Build 0)  -->
<svg version="1.1" id="Layer_1" xmlns="http://www.w3.org/2000/svg" xmlns:xlink="http://www.w3.org/1999/xlink" x="0px" y="0px"
	 viewBox="0 0 841.9 595.3" style="enable-background:new 0 0 841.9 595.3;" xml:space="preserve">
<style type="text/css">
	.st0{fill:url(#SVGID_1_);}
	.st1{fill:url(#SVGID_2_);stroke:#C8C8C8;stroke-width:2.1254;}
	.st2{fill-rule:evenodd;clip-rule:evenodd;fill:url(#SVGID_3_);}
	.st3{fill:url(#SVGID_4_);}
	.st4{fill:url(#SVGID_5_);stroke:#C8C8C8;stroke-width:2.1254;}
	.st5{fill-rule:evenodd;clip-rule:evenodd;fill:url(#SVGID_6_);}
	.st6{fill-rule:evenodd;clip-rule:evenodd;fill:url(#SVGID_7_);}
</style>
<linearGradient id="SVGID_1_" gradientUnits="userSpaceOnUse" x1="61.2671" y1="327.0776" x2="327.5332" y2="60.8115">
	<stop  offset="0" style="stop-color:#535B5E"/>
	<stop  offset="0.225" style="stop-color:#FEFEFE"/>
	<stop  offset="0.275" style="stop-color:#F4F4F4"/>
	<stop  offset="0.5" style="stop-color:#4A5154"/>
	<stop  offset="0.725" style="stop-color:#FEFEFE"/>
	<stop  offset="0.775" style="stop-color:#F4F4F4"/>
	<stop  offset="1" style="stop-color:#535B5E"/>
</linearGradient>
<circle class="st0" cx="194.4" cy="193.9" r="188.3"/>
<linearGradient id="SVGID_2_" gradientUnits="userSpaceOnUse" x1="194.3999" y1="370.1736" x2="194.3999" y2="17.7156">
	<stop  offset="0" style="stop-color:#535B5E"/>
	<stop  offset="0.225" style="stop-color:#FEFEFE"/>
	<stop  offset="0.275" style="stop-color:#F4F4F4"/>
	<stop  offset="0.5" style="stop-color:#4A5154"/>
	<stop  offset="0.725" style="stop-color:#FEFEFE"/>
	<stop  offset="0.775" style="stop-color:#F4F4F4"/>
	<stop  offset="1" style="stop-color:#535B5E"/>
</linearGradient>
<circle class="st1" cx="194.4" cy="193.9" r="176.2"/>
<circle cx="194.4" cy="193.9" r="164.2"/>
<linearGradient id="SVGID_3_" gradientUnits="userSpaceOnUse" x1="218.253" y1="245.025" x2="142.9064" y2="38.0121">
	<stop  offset="0" style="stop-color:#000000"/>
	<stop  offset="0.5" style="stop-color:#000000"/>
	<stop  offset="1" style="stop-color:#808080"/>
</linearGradient>
<path class="st2" d="M30.3,194c0-90.4,73.8-164.2,164.2-164.2S358.5,103.5,358.5,194c-87-50.1-164.1,0-164.1,0
	C107.3,244,30.3,194,30.3,194z"/>
<linearGradient id="SVGID_4_" gradientUnits="userSpaceOnUse" x1="464.0405" y1="327.0776" x2="730.3066" y2="60.8115">
	<stop  offset="0" style="stop-color:#535B5E"/>
	<stop  offset="0.225" style="stop-color:#FEFEFE"/>
	<stop  offset="0.275" style="stop-color:#F4F4F4"/>
	<stop  offset="0.5" style="stop-color:#4A5154"/>
	<stop  offset="0.725" style="stop-color:#FEFEFE"/>
	<stop  offset="0.775" style="stop-color:#F4F4F4"/>
	<stop  offset="1" style="stop-color:#535B5E"/>
</linearGradient>
<circle class="st3" cx="597.2" cy="193.9" r="188.3"/>
<linearGradient id="SVGID_5_" gradientUnits="userSpaceOnUse" x1="597.1738" y1="370.1736" x2="597.1738" y2="17.7156">
	<stop  offset="0" style="stop-color:#535B5E"/>
	<stop  offset="0.225" style="stop-color:#FEFEFE"/>
	<stop  offset="0.275" style="stop-color:#F4F4F4"/>
	<stop  offset="0.5" style="stop-color:#4A5154"/>
	<stop  offset="0.725" style="stop-color:#FEFEFE"/>
	<stop  offset="0.775" style="stop-color:#F4F4F4"/>
	<stop  offset="1" style="stop-color:#535B5E"/>
</linearGradient>
<circle class="st4" cx="597.2" cy="193.9" r="176.2"/>
<circle cx="597.2" cy="193.9" r="164.2"/>
<linearGradient id="SVGID_6_" gradientUnits="userSpaceOnUse" x1="621.0263" y1="245.0249" x2="545.6799" y2="38.0123">
	<stop  offset="0" style="stop-color:#000000"/>
	<stop  offset="0.5" style="stop-color:#000000"/>
	<stop  offset="1" style="stop-color:#808080"/>
</linearGradient>
<path class="st5" d="M433,194c0-90.4,73.8-164.2,164.2-164.2c90.4,0,164,73.8,164,164.2c-87-50.1-164,0-164,0
	C510.1,244,433,194,433,194z"/>
<radialGradient id="SVGID_7_" cx="597.2188" cy="322.4377" r="16.7114" gradientUnits="userSpaceOnUse">
	<stop  offset="0" style="stop-color:#FF0000"/>
	<stop  offset="1" style="stop-color:#990000"/>
</radialGradient>
<path class="st6" d="M603.5,325.9c2.1,0,3.8-1.7,3.8-3.9c0-0.9-0.3-1.8-0.9-2.5l-1.6-2.7l-1.4-2.4v6.1h2.1c0.3,0.4,0.5,0.9,0.5,1.4
	c0,1.4-1.1,2.5-2.5,2.5V325.9z M601,325c0.7,0.6,1.6,0.9,2.5,0.9c0,0,0,0,0,0v-1.3c0,0,0,0,0,0c-1.3,0-2.3-1-2.5-2.2v-0.5h0.2
	c0.7,0,1.3-0.5,1.7-1.3h0.7v-6.1l-0.4-0.7v-2c0-1.4-0.9-2.6-1.9-2.6H595v2.3h5.7v7.4H595v16.8h7.1v-2H601V325z M595,309.2h-6.1
	c-1,0-1.9,1.2-1.9,2.6v7.6c0,1.4,0.9,2.6,1.9,2.6h0.2v11.8H588v2h7.1v-16.8h-5.6v-7.4h5.6V309.2z"/>
</svg>
