<?xml version="1.0" encoding="utf-8"?>
<!-- Generator: Adobe Illustrator 19.1.0, SVG Export Plug-In . SVG Version: 6.00 Build 0)  -->
<svg version="1.1" xmlns="http://www.w3.org/2000/svg" xmlns:xlink="http://www.w3.org/1999/xlink" x="0px" y="0px"
	 viewBox="0 0 900 593" style="enable-background:new 0 0 900 593;" xml:space="preserve">
<style type="text/css">
	.st0{fill:#363636;}
	.st1{fill:url(#SVGID_1_);}
	.st2{fill:url(#SVGID_2_);}
	.st3{fill:url(#SVGID_3_);}
	.st4{fill:#6E6E6E;}
	.st5{fill:#242024;}
	.st6{fill:url(#SVGID_4_);}
	.st7{fill:url(#SVGID_5_);}
	.st8{fill:#333333;}
	.st9{fill:url(#SVGID_6_);}
	.st10{fill:url(#SVGID_7_);}
	.st11{fill:url(#SVGID_8_);}
	.st12{fill:url(#SVGID_9_);}
	.st13{fill:url(#SVGID_10_);}
	.st14{fill:#329E48;}
	.st15{fill:#262626;}
	.st16{fill:url(#SVGID_11_);}
	.st17{fill:url(#SVGID_12_);}
	.st18{fill:#E6E1E7;}
	.st19{fill:#B6AAA9;}
	.st20{fill:url(#SVGID_13_);}
	.st21{fill:url(#SVGID_14_);}
	.st22{fill:url(#SVGID_15_);}
	.st23{fill:url(#SVGID_16_);}
	.st24{fill:url(#SVGID_17_);}
	.st25{fill:url(#SVGID_18_);}
	.st26{fill:url(#SVGID_19_);}
</style>
<g id="Black_Background">
</g>
<g id="Revolution_Dial">
	<g>
		<circle class="st0" cx="158.2" cy="220.4" r="152.9"/>
		<radialGradient id="SVGID_1_" cx="179.0601" cy="71.6396" r="89.3" gradientUnits="userSpaceOnUse">
			<stop  offset="0" style="stop-color:#FFFFFF"/>
			<stop  offset="0.1868" style="stop-color:#878787"/>
			<stop  offset="0.3846" style="stop-color:#FFFFFF"/>
			<stop  offset="0.6099" style="stop-color:#8C8C8C"/>
			<stop  offset="0.8187" style="stop-color:#FFFFFF"/>
			<stop  offset="1" style="stop-color:#808080"/>
		</radialGradient>
		<circle class="st1" cx="158.2" cy="221.2" r="145.4"/>
		<radialGradient id="SVGID_2_" cx="107.0605" cy="87.1396" r="320.2817" gradientUnits="userSpaceOnUse">
			<stop  offset="0" style="stop-color:#FFFFFF"/>
			<stop  offset="0.1868" style="stop-color:#878787"/>
			<stop  offset="0.3846" style="stop-color:#FFFFFF"/>
			<stop  offset="0.5714" style="stop-color:#8C8C8C"/>
			<stop  offset="0.7308" style="stop-color:#FFFFFF"/>
			<stop  offset="0.8846" style="stop-color:#808080"/>
			<stop  offset="1" style="stop-color:#FFFFFF"/>
		</radialGradient>
		<circle class="st2" cx="158.2" cy="221.2" r="143.2"/>
		<radialGradient id="SVGID_3_" cx="227.5601" cy="95.6396" r="313.4643" gradientUnits="userSpaceOnUse">
			<stop  offset="0" style="stop-color:#FFFFFF"/>
			<stop  offset="0.1868" style="stop-color:#878787"/>
			<stop  offset="0.3846" style="stop-color:#FFFFFF"/>
			<stop  offset="0.5714" style="stop-color:#8C8C8C"/>
			<stop  offset="0.7308" style="stop-color:#FFFFFF"/>
			<stop  offset="0.8846" style="stop-color:#808080"/>
			<stop  offset="1" style="stop-color:#FFFFFF"/>
		</radialGradient>
		<circle class="st3" cx="158.2" cy="221.2" r="141.3"/>
		<circle class="st4" cx="158.2" cy="220.4" r="139.5"/>
		<circle class="st5" cx="170" cy="220.3" r="123.8"/>
		<radialGradient id="SVGID_4_" cx="94.5605" cy="39.1396" r="180.646" gradientUnits="userSpaceOnUse">
			<stop  offset="0" style="stop-color:#FFFFFF"/>
			<stop  offset="1" style="stop-color:#242024"/>
		</radialGradient>
		<circle class="st6" cx="170" cy="220.3" r="123.8"/>
		<radialGradient id="SVGID_5_" cx="75.5605" cy="43.1396" r="145.0308" gradientUnits="userSpaceOnUse">
			<stop  offset="0" style="stop-color:#FFFFFF"/>
			<stop  offset="1" style="stop-color:#242024"/>
		</radialGradient>
		<path class="st7" d="M293.9,220.3c-8.3-129.2-210.3-164.7-247.7,0c0-68.4,55.4-123.8,123.8-123.8
			C238.4,96.5,293.9,151.9,293.9,220.3z"/>
		<path class="st8" d="M170,92.6c-70.5,0-127.7,57.2-127.7,127.7C42.3,290.8,99.5,348,170,348c70.5,0,127.7-57.2,127.7-127.7
			C297.7,149.8,240.6,92.6,170,92.6z M170,344.1c-68.4,0-123.8-55.4-123.8-123.8c0-68.4,55.4-123.8,123.8-123.8
			c68.4,0,123.8,55.4,123.8,123.8C293.9,288.7,238.4,344.1,170,344.1z"/>
	</g>
</g>
<g id="Gas_Dial">
	<g>
		<circle class="st0" cx="670.9" cy="338.8" r="88"/>
		<radialGradient id="SVGID_6_" cx="745.8105" cy="298.1396" r="177.8346" gradientUnits="userSpaceOnUse">
			<stop  offset="0" style="stop-color:#FFFFFF"/>
			<stop  offset="0.1868" style="stop-color:#878787"/>
			<stop  offset="0.3846" style="stop-color:#FFFFFF"/>
			<stop  offset="0.5714" style="stop-color:#8C8C8C"/>
			<stop  offset="0.7308" style="stop-color:#FFFFFF"/>
			<stop  offset="0.8846" style="stop-color:#808080"/>
			<stop  offset="1" style="stop-color:#FFFFFF"/>
		</radialGradient>
		<path class="st9" d="M754.6,339.3c0,46.2-37.5,83.7-83.7,83.7c-46.2,0-83.7-37.5-83.7-83.7c0-46.2,37.5-83.7,83.7-83.7
			C717.1,255.6,754.6,293,754.6,339.3z"/>
		<radialGradient id="SVGID_7_" cx="658.3096" cy="256.8896" r="165.7054" gradientUnits="userSpaceOnUse">
			<stop  offset="0" style="stop-color:#FFFFFF"/>
			<stop  offset="0.1868" style="stop-color:#878787"/>
			<stop  offset="0.3846" style="stop-color:#FFFFFF"/>
			<stop  offset="0.5714" style="stop-color:#8C8C8C"/>
			<stop  offset="0.7308" style="stop-color:#FFFFFF"/>
			<stop  offset="0.8846" style="stop-color:#808080"/>
			<stop  offset="1" style="stop-color:#FFFFFF"/>
		</radialGradient>
		<circle class="st10" cx="670.9" cy="339.3" r="82.4"/>
		<radialGradient id="SVGID_8_" cx="680.0605" cy="255.8896" r="93.5757" gradientUnits="userSpaceOnUse">
			<stop  offset="0" style="stop-color:#FFFFFF"/>
			<stop  offset="0.1868" style="stop-color:#878787"/>
			<stop  offset="0.3846" style="stop-color:#FFFFFF"/>
			<stop  offset="0.5714" style="stop-color:#8C8C8C"/>
			<stop  offset="0.7308" style="stop-color:#FFFFFF"/>
			<stop  offset="0.8846" style="stop-color:#808080"/>
			<stop  offset="1" style="stop-color:#FFFFFF"/>
		</radialGradient>
		<path class="st11" d="M752.2,339.3c0,44.9-36.4,81.3-81.3,81.3c-44.9,0-81.3-36.4-81.3-81.3c0-44.9,36.4-81.3,81.3-81.3
			C715.8,257.9,752.2,294.3,752.2,339.3z"/>
		<circle class="st4" cx="670.9" cy="338.8" r="80.3"/>
		<path class="st5" d="M746,335.2c0,41.5-33.6,75.1-75.1,75.1c-41.5,0-75.1-33.6-75.1-75.1c0-41.5,33.6-75.1,75.1-75.1
			C712.4,260.1,746,293.7,746,335.2z"/>
		<radialGradient id="SVGID_9_" cx="647.5605" cy="184.1391" r="136.1322" gradientUnits="userSpaceOnUse">
			<stop  offset="0" style="stop-color:#FFFFFF"/>
			<stop  offset="1" style="stop-color:#242024"/>
		</radialGradient>
		<path class="st12" d="M746,335.2c0,71.7-150.6,75.1-150.3,0c0.2-41.5,33.6-75.1,75.1-75.1C712.4,260.1,746,293.7,746,335.2z"/>
		<radialGradient id="SVGID_10_" cx="653.0605" cy="212.1396" r="71.3528" gradientUnits="userSpaceOnUse">
			<stop  offset="0" style="stop-color:#FFFFFF"/>
			<stop  offset="1" style="stop-color:#242024"/>
		</radialGradient>
		<path class="st13" d="M746,335.2c-16.5-79.6-118.5-103.1-150.3,0c0-41.5,33.6-75.1,75.1-75.1C712.4,260.1,746,293.7,746,335.2z"/>
		<path class="st8" d="M670.9,258.3c-42.5,0-76.9,34.4-76.9,76.9c0,42.5,34.5,78.9,77,78.9c42.5,0,76.8-36.5,76.8-78.9
			C747.8,292.7,713.4,258.3,670.9,258.3z M670.9,410.3c-41.5,0-75.1-33.6-75.1-75.1c0-41.5,33.6-75.1,75.1-75.1
			c41.5,0,75.1,33.6,75.1,75.1C746,376.7,712.4,410.3,670.9,410.3z"/>
	</g>
	<g>
		<path class="st14" d="M630.2,369.2c0,0.8-0.6,1.4-1.4,1.4H621c-0.8,0-1.4-0.6-1.4-1.4V352c0-0.8,0.6-1.4,1.4-1.4h7.8
			c0.8,0,1.4,0.6,1.4,1.4V369.2z"/>
		<path class="st15" d="M628.8,356.9c0,0.8-0.6,1.4-1.4,1.4h-5c-0.8,0-1.4-0.6-1.4-1.4v-3.3c0-0.8,0.6-1.4,1.4-1.4h5
			c0.8,0,1.4,0.6,1.4,1.4V356.9z"/>
		<path class="st14" d="M631.4,371c0,0.3-0.3,0.6-0.6,0.6h-11.9c-0.3,0-0.6-0.3-0.6-0.6l0,0c0-0.3,0.3-0.6,0.6-0.6h11.9
			C631.1,370.4,631.4,370.7,631.4,371L631.4,371z"/>
		<path class="st14" d="M630.2,358.1c0.5,0,2.1,0.6,2.3,1.1c0.2,0.4,0.5,1.3,0.5,2.3c0,0.7-0.3,5.3,0.3,6c1,1.1,2.2,0.3,2.7-0.3
			c0.2-0.2,0.3-0.9,0.2-1.6c-0.1-0.7-0.6-2.5-0.8-3.4c-0.2-0.9-0.8-3.6-0.8-4.4c0-0.8,0.2-2,0.1-2.4c-0.2-0.7-0.8-1.6-1.2-2
			c-0.4-0.5-1.6-1.4-2-1.7c-0.2-0.2-0.4-0.8-0.3-1c0.8-0.2,2.1,0.2,2.9,0.8c0.7,0.5,2.6,2.6,2.8,3c0.2,0.4,0.7,1.8,0.4,2
			c-0.2,0.1-0.7,0.2-0.8,0.5c-0.1,0.5,0,1.2,0.1,1.8c0.1,0.6,0.7,3.9,0.9,4.7c0.2,0.8,0.5,2.6,0.4,3.4c-0.2,1-1.6,2.6-2.9,2.7
			c-1.3,0.1-2.5-0.7-2.8-1.1c-0.6-0.7-1-2.7-0.8-5.5c0-0.6,0.2-2.3,0.1-2.6c-0.2-0.4-1.1-1-1.5-1C630,359.1,630,358.4,630.2,358.1z"
			/>
	</g>
</g>
<g id="Water_Dial">
	<g>
		<path class="st0" d="M758.6,107.1c0,48.6-39.4,88-88,88s-88-39.4-88-88c0-48.6,39.4-88,88-88S758.6,58.6,758.6,107.1z"/>
		<radialGradient id="SVGID_11_" cx="675.2266" cy="23.1396" r="65.7539" gradientUnits="userSpaceOnUse">
			<stop  offset="0" style="stop-color:#FFFFFF"/>
			<stop  offset="0.1868" style="stop-color:#878787"/>
			<stop  offset="0.3846" style="stop-color:#FFFFFF"/>
			<stop  offset="0.6099" style="stop-color:#8C8C8C"/>
			<stop  offset="0.8187" style="stop-color:#FFFFFF"/>
			<stop  offset="1" style="stop-color:#808080"/>
		</radialGradient>
		<path class="st16" d="M754.3,107.6c0,46.2-37.5,83.7-83.7,83.7c-46.2,0-83.7-37.5-83.7-83.7c0-46.2,37.5-83.7,83.7-83.7
			C716.8,23.9,754.3,61.4,754.3,107.6z"/>
		<radialGradient id="SVGID_12_" cx="732.3516" cy="64.2753" r="152.3354" gradientUnits="userSpaceOnUse">
			<stop  offset="0" style="stop-color:#FFFFFF"/>
			<stop  offset="0.1868" style="stop-color:#878787"/>
			<stop  offset="0.3846" style="stop-color:#FFFFFF"/>
			<stop  offset="0.6099" style="stop-color:#8C8C8C"/>
			<stop  offset="0.8187" style="stop-color:#FFFFFF"/>
			<stop  offset="1" style="stop-color:#808080"/>
		</radialGradient>
		<circle class="st17" cx="670.6" cy="107.6" r="82.4"/>
		<path class="st18" d="M751.9,107.6c0,44.9-36.4,81.3-81.3,81.3c-44.9,0-81.3-36.4-81.3-81.3c0-44.9,36.4-81.3,81.3-81.3
			C715.5,26.3,751.9,62.7,751.9,107.6z"/>
		<path class="st19" d="M750.9,107.1c0,44.4-36,80.3-80.3,80.3c-44.3,0-80.3-36-80.3-80.3c0-44.4,36-80.3,80.3-80.3
			C715,26.8,750.9,62.8,750.9,107.1z"/>
		<circle class="st5" cx="670.6" cy="103.5" r="75.1"/>
		<radialGradient id="SVGID_13_" cx="647.0586" cy="-8.3604" r="109.218" gradientUnits="userSpaceOnUse">
			<stop  offset="0" style="stop-color:#FFFFFF"/>
			<stop  offset="1" style="stop-color:#242024"/>
		</radialGradient>
		<path class="st20" d="M745.8,103.5c0,56.6-150.3,56.6-150.3,0c0-41.5,33.6-75.1,75.1-75.1C712.1,28.4,745.8,62,745.8,103.5z"/>
		<radialGradient id="SVGID_14_" cx="673.5586" cy="-15.8604" r="81.5018" gradientUnits="userSpaceOnUse">
			<stop  offset="0" style="stop-color:#FFFFFF"/>
			<stop  offset="1" style="stop-color:#242024"/>
		</radialGradient>
		<path class="st21" d="M745.8,103.5c-23-90.4-129-92.7-150.3,0c0-41.5,33.6-75.1,75.1-75.1C712.1,28.4,745.8,62,745.8,103.5z"/>
		<path class="st8" d="M670.6,26.7c-42.5,0-76.9,34.4-76.9,76.9c0,42.5,34.5,78.9,77,78.9c42.5,0,76.8-36.5,76.8-78.9
			C747.5,61.1,713.1,26.7,670.6,26.7z M670.6,178.7c-41.5,0-75.1-33.6-75.1-75.1c0-41.5,33.6-75.1,75.1-75.1
			c41.5,0,75.1,33.6,75.1,75.1C745.8,145,712.1,178.7,670.6,178.7z"/>
	</g>
	<g>
		<g>
			<path class="st14" d="M623,79.9c0,0.7-0.6,1.3-1.3,1.3l0,0c-0.7,0-1.3-0.6-1.3-1.3V64.8c0-0.7,0.6-1.3,1.3-1.3l0,0
				c0.7,0,1.3,0.6,1.3,1.3V79.9z"/>
			<ellipse class="st14" cx="621.7" cy="82.9" rx="2.5" ry="2.7"/>
			<path class="st14" d="M629.6,68c0,0.6-0.5,1-1,1h-5c-0.6,0-1-0.5-1-1l0,0c0-0.6,0.5-1,1-1h5C629.1,67,629.6,67.5,629.6,68
				L629.6,68z"/>
			<path class="st14" d="M629.6,73c0,0.6-0.5,1-1,1h-5c-0.6,0-1-0.5-1-1l0,0c0-0.6,0.5-1,1-1h5C629.1,72,629.6,72.4,629.6,73
				L629.6,73z"/>
			<path class="st14" d="M629.6,77.8c0,0.6-0.5,1-1,1h-5c-0.6,0-1-0.5-1-1l0,0c0-0.6,0.5-1,1-1h5C629.1,76.7,629.6,77.2,629.6,77.8
				L629.6,77.8z"/>
		</g>
		<g>
			<path class="st14" d="M607.3,82.1c0.6-0.3,2.5-1.1,3.1-1.1c0.7,0,2.7,1.7,3.2,1.8c0.5,0,2.2,0,2.6,0c0,0.6,0,1,0,1.5
				c-0.5,0.1-2.1,0.1-2.6,0c-1.2-0.3-2.6-1.9-3-1.8c-0.4,0.1-3,1.1-3.6,1.2C607,83.2,607.1,82.4,607.3,82.1z"/>
			<path class="st14" d="M638.4,82.1c-0.6-0.3-2.5-1.1-3.1-1.1c-0.7,0-2.7,1.7-3.2,1.8c-0.5,0-2.2,0-2.6,0c0,0.6,0,1,0,1.5
				c0.5,0.1,2.1,0.1,2.6,0c1.2-0.3,2.6-1.9,3-1.8c0.4,0.1,3,1.1,3.6,1.2C638.7,83.2,638.5,82.4,638.4,82.1z"/>
			<path class="st14" d="M608.9,87c0.4-0.2,1.6-0.3,2.2-0.2c0.7,0.1,2.6,1.8,3.2,1.7c0.6,0,2.5-1.6,3.4-1.6c0.9,0,3.4,1.6,4.1,1.6
				c0.7,0,2.9-1.5,3.7-1.5c0.8,0,3,1.6,3.7,1.6c0.7,0,2.8-1.6,3.3-1.6c0.6,0,1.8,0.7,2.1,0.9c0.1,0.3,0.1,1,0.1,1.4
				c-0.3-0.1-1.7-0.9-1.9-0.8c-0.2,0.1-2.9,1.9-3.4,1.9c-0.6,0-3.1-1.6-3.7-1.7c-0.6,0-3.1,1.6-3.8,1.6c-0.7,0-3.6-2-4-2
				c-0.5,0.1-2.8,1.8-3.4,1.8c-0.5,0-2.8-1.5-3.1-1.5c-0.3,0-2,0.1-2.3,0.1C608.9,88.4,608.8,87.3,608.9,87z"/>
		</g>
	</g>
</g>
<g id="Speedometer">
	<g>
		<path class="st0" d="M638.2,224.8c0,121-98.1,219.2-219.2,219.2c-121,0-219.2-98.1-219.2-219.2S298,5.6,419,5.6
			C540,5.6,638.2,103.7,638.2,224.8z"/>
		<radialGradient id="SVGID_15_" cx="337.9941" cy="35.9931" r="358.2881" gradientUnits="userSpaceOnUse">
			<stop  offset="0" style="stop-color:#FFFFFF"/>
			<stop  offset="0.2912" style="stop-color:#878787"/>
			<stop  offset="0.522" style="stop-color:#FFFFFF"/>
			<stop  offset="0.7857" style="stop-color:#8C8C8C"/>
			<stop  offset="1" style="stop-color:#FFFFFF"/>
		</radialGradient>
		<circle class="st22" cx="419" cy="225.9" r="208.5"/>
		<radialGradient id="SVGID_16_" cx="365.5547" cy="23.6748" r="348.0646" gradientUnits="userSpaceOnUse">
			<stop  offset="0" style="stop-color:#FFFFFF"/>
			<stop  offset="0.2912" style="stop-color:#878787"/>
			<stop  offset="0.522" style="stop-color:#FFFFFF"/>
			<stop  offset="0.7857" style="stop-color:#8C8C8C"/>
			<stop  offset="1" style="stop-color:#FFFFFF"/>
		</radialGradient>
		<circle class="st23" cx="419" cy="225.9" r="205.4"/>
		<radialGradient id="SVGID_17_" cx="444.7197" cy="17.8105" r="435.8531" gradientUnits="userSpaceOnUse">
			<stop  offset="0" style="stop-color:#FFFFFF"/>
			<stop  offset="0.1868" style="stop-color:#878787"/>
			<stop  offset="0.3846" style="stop-color:#FFFFFF"/>
			<stop  offset="0.6099" style="stop-color:#8C8C8C"/>
			<stop  offset="0.8187" style="stop-color:#FFFFFF"/>
			<stop  offset="1" style="stop-color:#808080"/>
		</radialGradient>
		<circle class="st24" cx="419" cy="225.9" r="202.6"/>
		<circle class="st4" cx="419" cy="224.8" r="200.1"/>
		<circle class="st5" cx="419" cy="215.8" r="187.2"/>
		<radialGradient id="SVGID_18_" cx="418.9985" cy="17.4243" r="223.2223" gradientUnits="userSpaceOnUse">
			<stop  offset="0" style="stop-color:#FFFFFF"/>
			<stop  offset="1" style="stop-color:#242024"/>
		</radialGradient>
		<path class="st25" d="M606.2,215.8c0,103.4-374.4,103.4-374.4,0c0-103.4,83.8-187.2,187.2-187.2
			C522.4,28.6,606.2,112.4,606.2,215.8z"/>
		<radialGradient id="SVGID_19_" cx="415.9873" cy="-13.2647" r="195.2702" gradientUnits="userSpaceOnUse">
			<stop  offset="0" style="stop-color:#FFFFFF"/>
			<stop  offset="1" style="stop-color:#242024"/>
		</radialGradient>
		<path class="st26" d="M606.2,215.8C557,2.9,277.8,2.5,231.8,215.8c0-103.4,83.8-187.2,187.2-187.2
			C522.4,28.6,606.2,112.4,606.2,215.8z"/>
		<path class="st8" d="M419,24.7c-105.5,0-191.1,85.5-191.1,191.1c0,105.5,85.5,191.1,191.1,191.1c105.5,0,191.1-85.6,191.1-191.1
			C610.1,110.3,524.5,24.7,419,24.7z M419,403c-103.4,0-187.2-83.8-187.2-187.2c0-103.4,83.8-187.2,187.2-187.2
			c103.4,0,187.2,83.8,187.2,187.2C606.2,319.2,522.4,403,419,403z"/>
	</g>
</g>
</svg>
